<?xml version="1.0" encoding="utf-8"?>
<!-- Generator: Adobe Illustrator 24.2.1, SVG Export Plug-In . SVG Version: 6.00 Build 0)  -->
<svg version="1.1" id="Layer_1" xmlns="http://www.w3.org/2000/svg" xmlns:xlink="http://www.w3.org/1999/xlink" x="0px" y="0px"
	 viewBox="0 0 78 26" style="enable-background:new 0 0 78 26;" xml:space="preserve">
<style type="text/css">
	.st0{fill:#E4002B;}
</style>
<g transform="translate(20 26)">
	<path class="st0" d="M45.8-1c-0.3,0-0.6,0-0.9,0c-2.3-0.1-4.5-0.6-6.5-1.6c-1.6-0.8-3-2.1-4-3.7c-0.6-1.1-1.1-2.3-1.2-3.5
		c-0.2-1.2-0.1-2.5,0.1-3.7c0.2-1.4,0.7-2.7,1.4-4c1.1-2.1,2.8-3.9,4.9-5.1c1.5-0.9,3.2-1.5,4.9-1.8c1.2-0.3,2.4-0.4,3.6-0.5
		c1.1-0.1,2.3-0.1,3.4-0.1c1.7,0.1,3.4,0.4,5.1,0.8c0.4,0.1,0.6,0.5,0.5,0.8c0,0,0,0,0,0c-0.3,1.5-0.7,3-1,4.5
		c-0.1,0.4-0.2,0.7-0.3,1.1c0,0.3-0.3,0.5-0.6,0.5c-0.6,0-1.2,0-1.8,0c-0.3,0-0.6-0.2-0.6-0.5c0,0,0-0.1,0-0.1c0-0.5,0-1-0.2-1.4
		c-0.3-0.8-0.9-1.4-1.7-1.6c-0.7-0.2-1.4-0.3-2.1-0.3c-0.9,0-1.9,0.3-2.7,0.7c-1.3,0.6-2.4,1.6-3.2,2.8c-1.1,1.7-1.7,3.8-1.7,5.8
		c0,1.3,0.4,2.5,1,3.5c0.7,1.1,1.8,2,3.1,2.4c0.8,0.3,1.6,0.5,2.5,0.6c0.9,0.1,1.7,0.1,2.6,0c1.3-0.1,2.5-0.3,3.8-0.7
		c0.3-0.1,0.6,0,0.7,0.3c0,0.1,0,0.2,0,0.3c-0.1,0.6-0.2,1.1-0.3,1.7c-0.1,0.4-0.1,0.8-0.2,1.2c0,0.3-0.2,0.5-0.5,0.5
		c-0.8,0.2-1.5,0.4-2.3,0.6c-1,0.2-1.9,0.3-2.9,0.4c-0.5,0-1,0.1-1.6,0.1c-0.1,0-0.2,0-0.3,0L45.8-1z"/>
	<path class="st0" d="M0.3-14.2l0.8,1c1.8,2.4,3.5,4.8,5.3,7.2C6.7-5.6,7-5.2,7.4-4.9C7.9-4.3,8.6-4,9.4-4c0.1,0,0.2,0,0.3,0
		c0.3,0.1,0.5,0.4,0.5,0.7c-0.1,0.5-0.2,1-0.3,1.5C9.7-1.5,9.4-1.3,9.2-1.3c-1.7,0-3.5,0-5.2,0c-1,0-2-0.2-2.9-0.5
		c-1-0.4-2-1-2.7-1.8c-0.7-0.8-1.4-1.7-2-2.6c-1-1.6-1.9-3.2-2.8-4.8l-0.3-0.6c-0.1,0.2-0.1,0.4-0.1,0.6c-0.4,1.7-0.8,3.5-1.1,5.2
		c-0.1,0.5,0,0.9,0.4,1.2c0.2,0.2,0.5,0.3,0.7,0.4c0.3,0.1,0.5,0.4,0.4,0.7c0,0,0,0,0,0c-0.1,0.5-0.2,1.1-0.4,1.6
		c0,0.3-0.3,0.5-0.6,0.5h-11c-0.3,0-0.6-0.2-0.7-0.6c0-0.1,0-0.1,0-0.2c0.1-0.5,0.2-0.9,0.3-1.4c0-0.3,0.3-0.5,0.6-0.5
		c0.7-0.1,1.4-0.5,1.7-1.1c0.4-0.6,0.6-1.2,0.8-1.9c0.2-0.8,0.4-1.6,0.6-2.4c0.4-1.9,0.8-3.8,1.3-5.7c0.3-1.5,0.6-2.9,0.9-4.4
		c0.1-0.4,0.1-0.8,0-1.2c-0.2-0.5-0.6-0.9-1.2-1.1c-0.2-0.1-0.4-0.2-0.4-0.5c0-0.1,0-0.2,0-0.3c0.1-0.5,0.2-1,0.3-1.5
		c0-0.3,0.3-0.6,0.7-0.5h10.4c0.3,0,0.5,0.1,0.6,0.4c0,0.1,0,0.2,0,0.3c-0.1,0.5-0.2,1-0.3,1.5c0,0.2-0.2,0.4-0.4,0.5
		c-0.5,0.1-0.9,0.4-1.2,0.8c-0.2,0.3-0.4,0.7-0.5,1.1c-0.4,2-0.9,4-1.3,6c0,0,0,0,0,0.1c0,0,0.1-0.1,0.1-0.1
		c2.7-2.2,5.4-4.5,8.1-6.7C1.9-20.8,2-20.9,2.1-21c0.2-0.2,0.1-0.6-0.1-0.8c-0.1-0.1-0.2-0.1-0.3-0.2c-0.3-0.1-0.4-0.4-0.4-0.7
		c0.1-0.5,0.2-1,0.3-1.5c0.1-0.3,0.3-0.5,0.6-0.5c3.2,0,6.4,0,9.6,0c0.3,0,0.6,0.2,0.6,0.5c0,0.1,0,0.1,0,0.2
		c-0.1,0.5-0.2,1-0.3,1.5C12-22.2,11.8-22,11.5-22c-1.1,0.1-2.2,0.5-3.1,1.2c-0.5,0.4-1,0.8-1.5,1.2l-6.4,5.3
		C0.4-14.3,0.4-14.2,0.3-14.2z"/>
	<path class="st0" d="M22.1-14.6h7.2c0.3,0,0.6,0.2,0.6,0.5c0,0.1,0,0.2,0,0.3c-0.2,1-0.5,2.1-0.7,3.1c0,0.3-0.3,0.5-0.6,0.5h-7.3
		c-0.2,0-0.2,0-0.2,0.2c-0.3,1.3-0.6,2.6-0.8,3.9c-0.2,0.6,0.1,1.3,0.6,1.7c0.2,0.1,0.4,0.3,0.6,0.4c0.3,0.1,0.4,0.4,0.3,0.7
		c-0.1,0.6-0.2,1.1-0.4,1.7c0,0.3-0.3,0.5-0.6,0.5H12c-0.3,0-0.6-0.2-0.6-0.5c0-0.1,0-0.1,0-0.2c0.2-0.8,0.4-1.7,0.6-2.5l1.6-7.2
		c0.5-2.3,1-4.5,1.5-6.8c0.1-0.5,0.2-0.9,0.3-1.4c0.1-0.8-0.3-1.6-1.1-1.9c-0.1,0-0.2-0.1-0.2-0.1c-0.3-0.1-0.4-0.4-0.4-0.7
		c0.1-0.5,0.2-1.1,0.4-1.6c0.1-0.3,0.3-0.5,0.6-0.5c0,0,0.1,0,0.1,0h19.5c0.1,0,0.2,0,0.3,0c0.3,0.1,0.5,0.4,0.4,0.7c0,0,0,0,0,0
		c-0.3,1.4-0.6,2.7-0.9,4.1c-0.1,0.5-0.2,1-0.3,1.5c0,0.3-0.3,0.6-0.7,0.5c0,0,0,0,0,0h-1.7c-0.3,0-0.6-0.2-0.7-0.5
		c0-0.1,0-0.1,0-0.2c0-0.3,0-0.7-0.1-1c-0.1-0.7-0.7-1.2-1.3-1.2c-0.5-0.1-0.9-0.1-1.4-0.1c-1.4,0-2.8,0-4.2,0c-0.1,0-0.1,0-0.2,0.1
		C23-18.6,22.5-16.7,22.1-14.6C22.1-14.6,22.1-14.6,22.1-14.6z"/>
</g>
</svg>